# xmcd
#
# Track frame offsets: 
#        150
#        27670
#        47021
#        68557
#        87915
#        107264
#        131744
#        154657
#        178469
#        203901
#
# Disc length: 3487 seconds
#
# Revision: 1
# Processed by: cddbd v1.5.2PL0 Copyright (c) Steve Scherf et al.
# Submitted via: ExactAudioCopy v1.0b3
#
DISCID=860d9d0a
DTITLE=Allegaeon - Elements Of The Infinite
DYEAR=2014
DGENRE=Death Metal
TTITLE0=Threshold Of Perception
TTITLE1=Tyrants Of The Terrestrial Exodus
TTITLE2=Dyson Sphere
TTITLE3=The Phylogenesis Stretch
TTITLE4=1.618
TTITLE5=Gravimetric Time Dilation
TTITLE6=Our Cosmic Casket
TTITLE7=Biomech II
TTITLE8=Through Ages Of Ice - Otzi's Curse
TTITLE9=Genocide For Praise - Vals For The Vitruvian Man
EXTD=
EXTT0=
EXTT1=
EXTT2=
EXTT3=
EXTT4=
EXTT5=
EXTT6=
EXTT7=
EXTT8=
EXTT9=
PLAYORDER=
